<?xml version="1.0" encoding="utf-8"?>
<!-- Generator: Adobe Illustrator 15.0.0, SVG Export Plug-In . SVG Version: 6.00 Build 0)  -->
<!DOCTYPE svg PUBLIC "-//W3C//DTD SVG 1.1//EN" "http://www.w3.org/Graphics/SVG/1.1/DTD/svg11.dtd">
<svg version="1.1" id="Layer_1" xmlns="http://www.w3.org/2000/svg" xmlns:xlink="http://www.w3.org/1999/xlink" x="0px" y="0px"
	 width="154.232px" height="52.064px" viewBox="-22.511 -20.028 154.232 52.064"
	 enable-background="new -22.511 -20.028 154.232 52.064" xml:space="preserve">
<polygon fill="#FEBE1F" points="82.848,4.694 86.079,4.298 85.076,0.062 "/>
<g>
	<path fill="#FEBE1F" d="M111.846,7.799l-6.391,0.786l-2.771-4.737l-3.594,5.518l-5.283,0.648l-1.562,0.191l-4.729,0.581
		l-0.591-2.337l-6.189,0.76l-1.252,2.564l-5.96,0.73l-0.479,0.06l-5.404,0.662l1.269-9.051l-4.983,6.996l-0.101,0.013L60.68,5.186
		l-1.273,9.053l-5.783,0.71l2.579-18.263l5.833-0.717l2.883,5.955l4.693-6.885l6.491-0.797L73.69,11.334l9.413-17.926l5.86-0.717
		l4.429,15.841l5.914-8.63l-5.182-7.875l6.392-0.783l2.546,4.046l3.06-4.735l6.846-0.84l-6.57,9.574L111.846,7.799z M52.47,10.166
		l-0.696,5.008l-15.07,1.851l2.578-18.264l15.08-1.85l-0.717,5.011l-9.271,1.135l-0.259,1.854l8.636-1.061l-0.613,4.407
		l-8.636,1.061l-0.294,1.986L52.47,10.166z M29.605,17.897l-5.271-8.276l-1.295,9.082l-5.858,0.72l2.577-18.262l5.53-0.68
		l5.054,7.942l1.237-8.717l5.86-0.718L34.86,17.252L29.605,17.897z M9.451,20.371L12.03,2.109l5.909-0.726l-2.578,18.264
		L9.451,20.371z M7.594,20.609l-11.021,1.354c-0.003,0-0.005,0-0.009,0c-2.208,0.27-3.878-1.07-3.709-2.701l1.748-12.534
		c0.399-1.598,1.716-2.682,3.418-2.889l12.202-1.503L9.492,7.457L2.554,8.303c-1.301,0.159-2.545,0.551-2.742,2.022l-0.656,4.63
		c-0.177,1.28,0.716,1.59,1.708,1.468l7.489-0.921L7.594,20.609z M-17.786-1.952l-4.775,33.988l144.438-17.735l4.776-33.988
		L-17.786-1.952z"/>
	<path fill="#FEBE1F" d="M129.672-17.941c0.186-0.022,0.289-0.085,0.344-0.156c0.043-0.054,0.059-0.118,0.051-0.18
		c-0.018-0.16-0.134-0.194-0.321-0.173l-0.317,0.041l-0.075,0.508L129.672-17.941z M129.178-16.684l-0.7,0.086l0.326-2.334
		l0.907-0.112c0.677-0.083,0.983,0.19,1.035,0.596c0.048,0.406-0.163,0.706-0.557,0.879l0.413,0.71l-0.725,0.088l-0.35-0.618
		l-0.259,0.034L129.178-16.684z M131-16.672c0.377-0.48,0.532-1.048,0.46-1.639c-0.114-0.92-0.818-1.594-1.888-1.462
		c-0.577,0.07-1.05,0.377-1.363,0.778c-0.378,0.483-0.532,1.049-0.459,1.638c0.112,0.922,0.819,1.596,1.887,1.465
		C130.214-15.966,130.689-16.272,131-16.672 M131.702-18.366c0.079,0.651-0.09,1.294-0.489,1.805
		c-0.387,0.496-0.922,0.823-1.573,0.903c-1.152,0.142-2.005-0.601-2.133-1.644c-0.08-0.651,0.091-1.296,0.489-1.805
		c0.388-0.496,0.921-0.824,1.571-0.904C130.722-20.153,131.573-19.409,131.702-18.366"/>
</g>
</svg>
